<?xml version="1.0" encoding="UTF-8"?>
<svg id="Capa_2" data-name="Capa 2" xmlns="http://www.w3.org/2000/svg" viewBox="0 0 2099.69 399.43">
  <defs>
    <style>
      .cls-1 {
        fill: #553c82;
      }

      .cls-2 {
        fill: #ff7e31;
      }
    </style>
  </defs>
  <g id="TEXT">
    <path class="cls-1" d="M698.04,82.57l-11.14,57.34c-.16.83-.85,1.42-1.66,1.42h-56.7c-.81,0-1.5.6-1.66,1.43l-33.74,175.81c-.16.83-.85,1.43-1.66,1.43h-62.69c-1.07,0-1.87-1.03-1.66-2.13l33.47-174.4c.21-1.1-.59-2.13-1.66-2.13h-57.16c-1.07,0-1.87-1.03-1.66-2.13l10.86-57.34c.16-.83.85-1.43,1.66-1.43h183.75c1.07,0,1.87,1.03,1.66,2.14Z"/>
    <path class="cls-1" d="M911.16,178.54c0,26.03-4.66,49.61-13.96,70.73-9.31,21.12-23.36,38.2-42.18,51.21-18.81,13.02-40.76,19.52-65.84,19.52-30.75,0-54.72-8.85-71.91-26.56-17.2-17.71-25.79-42.99-25.79-75.85,0-39.04,11.17-71.58,33.53-97.61,22.35-26.03,51.83-39.04,88.45-39.04,29.53,0,53.2,8.54,71,25.6,17.8,17.07,26.7,41.07,26.7,72.01ZM810.42,136.62c-9.1,0-17.25,2.78-24.43,8.32-7.18,5.55-12.74,12.7-16.69,21.44-3.94,8.75-6.93,17.82-8.95,27.2-2.02,9.39-3.03,18.46-3.03,27.2,0,14.08,3.19,24.91,9.56,32.48,6.37,7.58,15.32,11.36,26.85,11.36s20.73-5.12,28.83-15.36c8.09-10.24,13.75-21.49,16.99-33.76,3.23-12.27,4.85-23.95,4.85-35.04,0-13.01-2.73-23.57-8.19-31.68-5.46-8.11-14.06-12.16-25.79-12.16Z"/>
    <path class="cls-1" d="M1141.52,83.47l-107.01,235.52c-.28.62-.88,1.01-1.53,1.01h-72.02c-.88,0-1.62-.71-1.69-1.63l-18.53-235.52c-.08-1.04.7-1.92,1.69-1.92h62.42c.89,0,1.63.73,1.69,1.66l2.32,37.29c1.21,18.36,1.92,32.23,2.12,41.64.95,29.99,1.09,54.21.43,72.66-.07,2.06,2.69,2.57,3.3.61,8.18-26.23,18.57-54.91,31.16-86.03l27.17-66.75c.27-.65.88-1.08,1.56-1.08h65.38c1.25,0,2.06,1.36,1.53,2.54Z"/>
    <path class="cls-1" d="M1271.85,81.95l33.48,236.01c.15,1.08-.64,2.04-1.68,2.04h-62.06c-.86,0-1.59-.68-1.68-1.58l-3.3-30.82c-.1-.9-.82-1.58-1.68-1.58h-68.15c-.63,0-1.21.37-1.5.96l-15.74,32.06c-.29.59-.87.96-1.5.96h-64.37c-1.29,0-2.11-1.45-1.48-2.64l123.75-236.01c.3-.57.87-.92,1.48-.92h62.78c.84,0,1.55.65,1.68,1.52ZM1225.43,164.93c-.07-1.9-2.55-2.37-3.25-.62-5.12,12.86-11.7,27.63-19.72,44.31l-11.18,22.98c-.58,1.18.24,2.59,1.51,2.59h36.92c1.01,0,1.79-.91,1.68-1.97l-4.05-40.77c-.94-8.31-1.57-17.15-1.91-26.53Z"/>
    <path class="cls-1" d="M1364.21,81.86c.16-.83.85-1.43,1.66-1.43h97.83c7.69,0,14.36.23,20.03.67,5.66.45,11.88,1.29,18.66,2.52,6.78,1.24,12.49,3.31,17.14,6.22,4.65,2.92,9.05,6.56,13.2,10.94,4.14,4.37,7.23,10.09,9.25,17.16,2.02,7.07,3.03,15.2,3.03,24.39,0,17.72-4.45,32.81-13.35,45.26-7.93,11.08-18.5,18.13-31.71,21.12-1.51.34-1.86,2.47-.51,3.27,6.83,4.07,11.5,9.46,14.02,16.16,3.03,8.08,4.45,18.62,4.25,31.63-.2,19.74-.3,30.28-.3,31.63,0,11.98.7,20.77,2.09,26.39.28,1.12-.54,2.21-1.64,2.21h-61.02c-.78,0-1.48-.56-1.65-1.36-1-4.56-1.5-9.49-1.5-14.79,0-3.14.15-7.96.46-14.47.3-6.5.45-11.44.45-14.8,0-15.03-1.92-25.24-5.76-30.62-3.85-5.38-12.34-8.08-25.49-8.08h-21.67c-.81,0-1.51.6-1.66,1.44l-15.24,81.25c-.16.83-.85,1.44-1.66,1.44h-62.08c-1.07,0-1.87-1.03-1.66-2.13l44.84-236.01ZM1419.43,137.38l-8.72,45.56c-.21,1.1.59,2.13,1.66,2.13h35.86c8.9,0,16.18-2.3,21.85-6.9,5.66-4.59,8.5-11.72,8.5-21.37,0-13.91-9.41-20.86-28.22-20.86h-29.26c-.81,0-1.5.6-1.66,1.43Z"/>
    <path class="cls-2" d="M1736.21,220.02c-2.03-8.54-5.45-15.98-10.23-22.34-4.78-6.35-10.84-11.33-18.17-14.94-7.33-3.61-15.58-5.43-24.74-5.43h-100.74c-1.94,0-3.4,1.85-2.96,3.79,1.44,6.38,3.53,12.26,6.26,17.65,3.25,6.43,7.28,11.99,12.06,16.69,4.78,4.69,10.18,8.29,16.19,10.79,6.01,2.51,12.57,3.76,19.7,3.76h40.63c4.47,0,8.04,1.71,10.69,5.11,2.64,3.4,3.56,7.52,2.75,12.35-.82,4.61-3.06,8.67-6.72,12.18-3.67,3.52-7.74,5.26-12.22,5.26h-40.63c-4.68,0-8.35-1.75-10.99-5.26-2.65-3.52-3.57-7.57-2.75-12.18l2.12-12.17c.33-1.9-1.1-3.64-2.98-3.64h-43.03c-1.47,0-2.73,1.07-2.98,2.55l-2.31,13.25c-1.63,9.66-1.37,18.76.77,27.33,2.13,8.55,5.65,16.02,10.53,22.39,4.89,6.37,11.05,11.35,18.48,14.97,7.43,3.63,15.63,5.44,24.59,5.44h40.63c9.16,0,17.97-1.81,26.42-5.42,8.45-3.61,16.13-8.59,23.06-14.94,6.92-6.36,12.78-13.81,17.56-22.34,4.79-8.54,7.99-17.63,9.63-27.27.72-4.37,1.08-8.61,1.08-12.73,0-5.16-.57-10.11-1.7-14.86Z"/>
    <path class="cls-2" d="M1751.18,157.96l-2.03,14.24c-.24,1.65-1.5,2.87-2.99,2.87h-43.05c-1.86,0-3.28-1.88-2.99-3.94l1.88-13.27c.82-5.38-.05-9.95-2.59-13.74-2.55-3.78-6.06-5.67-10.54-5.67h-102.07c-.67,0-1.13-.79-.85-1.48.89-2.14,1.85-4.24,2.88-6.32,4.99-10.03,11-18.73,18.03-26.1,7.02-7.37,14.86-13.23,23.52-17.59,8.65-4.34,17.45-6.53,26.42-6.53h40.62c9.17,0,17.41,2,24.74,6.01,7.33,4.01,13.39,9.52,18.18,16.55,4.78,7.03,8.19,15.29,10.23,24.76,2.03,9.46,2.24,19.52.61,30.2Z"/>
    <path class="cls-2" d="M1808.73,176.99h-45.73c-.37,0-.71.12-.99.32h47.72c-.28-.2-.62-.32-1-.32Z"/>
    <path class="cls-2" d="M1927.42,153.21l-25.42,162.86c-.14.87-.84,1.51-1.67,1.51h-45.75c-1.04,0-1.84-1-1.67-2.09l10.04-64.16c.17-1.1-.62-2.1-1.67-2.1h-61.32c-.83,0-1.54.64-1.67,1.51l-10.22,65.33c-.14.87-.85,1.51-1.67,1.51h-45.75c-1.04,0-1.84-1-1.67-2.09l22.35-142.31c.07-.49.33-.9.68-1.17h47.35c.27,0,.54.12.71.34.29.39.43.89.34,1.42l-2.99,18.7c-.17,1.09.62,2.1,1.67,2.1h61.31c.83,0,1.54-.64,1.67-1.51l6.18-39.73c.82-5.05-.1-9.34-2.74-12.9-2.65-3.54-6.22-5.32-10.69-5.32h-32.08c-.63,0-1.25.04-1.87.14v-.14h-59.22c-.67,0-1.13-.75-.85-1.39.83-1.89,1.73-3.77,2.69-5.62,4.88-9.44,10.84-17.7,17.86-24.76,7.03-7.06,14.87-12.64,23.52-16.75,8.66-4.09,17.46-6.15,26.43-6.15h32.07c8.96,0,17.15,1.88,24.59,5.64,7.43,3.75,13.59,8.94,18.48,15.55,4.88,6.61,8.34,14.35,10.38,23.23,2.03,8.89,2.24,18.35.61,28.36Z"/>
    <path class="cls-2" d="M2035.22,179l-22.34,137.12c-.14.84-.84,1.45-1.67,1.45h-45.75c-1.04,0-1.84-.96-1.67-2.01l22.35-137.12c.07-.47.33-.87.68-1.12h47.73c.5.37.79,1.01.67,1.69Z"/>
    <path class="cls-2" d="M2099.67,82.8l-7.99,58.01c-.13.99-.84,1.71-1.67,1.71h-146.85c-1.04,0-1.84-1.13-1.67-2.37l7.99-58.01c.14-.99.85-1.71,1.68-1.71h146.84c1.05,0,1.85,1.13,1.67,2.37Z"/>
    <path class="cls-2" d="M1809.73,177.31h-47.72c.28-.2.62-.32.99-.32h45.73c.38,0,.72.12,1,.32Z"/>
    <path class="cls-1" d="M88.43,0h311.57v32.14c0,37.77-30.66,68.43-68.43,68.43H0v-12.14C0,39.62,39.62,0,88.43,0Z"/>
    <rect class="cls-1" x="78" y="150" width="243.77" height="100" rx="50" ry="50"/>
    <rect class="cls-1" x="149.88" y="299.43" width="100" height="100" rx="50" ry="50"/>
  </g>
</svg>